# xmcd
#
# Track frame offsets:
#	150
#	10580
#	22087
#	32442
#	43694
#	55736
#	67196
#	78068
#	89767
#	100996
#	111923
#	124533
#	137440
#	148139
#	159901
#
# Disc length: 2278 seconds
#
# Revision: 2
# Processed by: cddbd v1.5.2PL0 Copyright (c) Steve Scherf et al.
# Submitted via: EasyCDDAExtractor 8.2.3.1
#
DISCID=c008e40f
DTITLE=Various Artist - Early Wanda Jackson
DYEAR=1955
DGENRE=Country
TTITLE0=Wanda Jackson and Billy Gray - If You Don't Somebody Else Will
TTITLE1=Wanda Jackson and Billy Gray - You Can't Have My Love
TTITLE2=Wanda Jackson - I'd Rather Have A Broken Heart
TTITLE3=Wanda Jackson - You'd Be The First One To Know
TTITLE4=Wanda Jackson - If You Knew What I Know
TTITLE5=Wanda Jackson - Lovin' Country Style
TTITLE6=Wanda Jackson - The Heart You Could Have Had
TTITLE7=Wanda Jackson - The Right To Love
TTITLE8=Wanda Jackson - It's The Same World (Wherever You Go)
TTITLE9=Wanda Jackson - Tears At The Grand Ole Opry
TTITLE10=Wanda Jackson - Don't Do The Things He'd Do
TTITLE11=Wanda Jackson - Nobody's Darlin' But Mine
TTITLE12=Wanda Jackson - Wasted
TTITLE13=Wanda Jackson - I Cried Again
TTITLE14=Wanda Jackson - You Won't Forget (About Me)
EXTD=
EXTT0=
EXTT1=
EXTT2=
EXTT3=
EXTT4=
EXTT5=
EXTT6=
EXTT7=
EXTT8=
EXTT9=
EXTT10=
EXTT11=
EXTT12=
EXTT13=
EXTT14=
PLAYORDER=
